<mxfile host="app.diagrams.net" modified="2023-10-19T06:35:29.595Z" agent="Mozilla/5.0 (Windows NT 10.0; Win64; x64) AppleWebKit/537.36 (KHTML, like Gecko) Chrome/118.0.0.0 Safari/537.36" etag="wo0XBZuqpjuUorOIzf63" version="22.0.5" type="device">
  <diagram name="Страница — 1" id="mRZ40oLBY3o3glydsohH">
    <mxGraphModel dx="2927" dy="1068" grid="1" gridSize="10" guides="1" tooltips="1" connect="1" arrows="1" fold="1" page="1" pageScale="1" pageWidth="827" pageHeight="1169" math="0" shadow="0">
      <root>
        <mxCell id="0" />
        <mxCell id="1" parent="0" />
        <mxCell id="8NdlcEFQy9pJKiZ9Ffve-25" value="Validator" style="swimlane;fontStyle=0;childLayout=stackLayout;horizontal=1;startSize=26;fillColor=none;horizontalStack=0;resizeParent=1;resizeParentMax=0;resizeLast=0;collapsible=1;marginBottom=0;whiteSpace=wrap;html=1;rounded=0;" parent="1" vertex="1">
          <mxGeometry x="210" y="50" width="340" height="208" as="geometry" />
        </mxCell>
        <mxCell id="8NdlcEFQy9pJKiZ9Ffve-26" value="+&amp;nbsp;AssertOnPositiveValue (int, string)" style="text;strokeColor=none;fillColor=none;align=left;verticalAlign=top;spacingLeft=4;spacingRight=4;overflow=hidden;rotatable=0;points=[[0,0.5],[1,0.5]];portConstraint=eastwest;whiteSpace=wrap;html=1;rounded=0;fontStyle=4" parent="8NdlcEFQy9pJKiZ9Ffve-25" vertex="1">
          <mxGeometry y="26" width="340" height="26" as="geometry" />
        </mxCell>
        <mxCell id="8NdlcEFQy9pJKiZ9Ffve-27" value="+&amp;nbsp;AssertOnPositiveValue (double, string)" style="text;strokeColor=none;fillColor=none;align=left;verticalAlign=top;spacingLeft=4;spacingRight=4;overflow=hidden;rotatable=0;points=[[0,0.5],[1,0.5]];portConstraint=eastwest;whiteSpace=wrap;html=1;rounded=0;fontStyle=4" parent="8NdlcEFQy9pJKiZ9Ffve-25" vertex="1">
          <mxGeometry y="52" width="340" height="26" as="geometry" />
        </mxCell>
        <mxCell id="8NdlcEFQy9pJKiZ9Ffve-28" value="+&amp;nbsp;AssertValueInRange (int, int, int, string)" style="text;strokeColor=none;fillColor=none;align=left;verticalAlign=top;spacingLeft=4;spacingRight=4;overflow=hidden;rotatable=0;points=[[0,0.5],[1,0.5]];portConstraint=eastwest;whiteSpace=wrap;html=1;rounded=0;fontStyle=4" parent="8NdlcEFQy9pJKiZ9Ffve-25" vertex="1">
          <mxGeometry y="78" width="340" height="26" as="geometry" />
        </mxCell>
        <mxCell id="EkHCMVU59h59knE90Hll-35" value="+&amp;nbsp;AssertValueInRange (double, double, double, string)" style="text;strokeColor=none;fillColor=none;align=left;verticalAlign=top;spacingLeft=4;spacingRight=4;overflow=hidden;rotatable=0;points=[[0,0.5],[1,0.5]];portConstraint=eastwest;whiteSpace=wrap;html=1;rounded=0;fontStyle=4" parent="8NdlcEFQy9pJKiZ9Ffve-25" vertex="1">
          <mxGeometry y="104" width="340" height="26" as="geometry" />
        </mxCell>
        <mxCell id="EkHCMVU59h59knE90Hll-36" value="+&amp;nbsp;CheckStringContainsOnlyEnglishLetters (string)" style="text;strokeColor=none;fillColor=none;align=left;verticalAlign=top;spacingLeft=4;spacingRight=4;overflow=hidden;rotatable=0;points=[[0,0.5],[1,0.5]];portConstraint=eastwest;whiteSpace=wrap;html=1;rounded=0;fontStyle=4" parent="8NdlcEFQy9pJKiZ9Ffve-25" vertex="1">
          <mxGeometry y="130" width="340" height="26" as="geometry" />
        </mxCell>
        <mxCell id="EkHCMVU59h59knE90Hll-37" value="+&amp;nbsp;CheckStringContainsAddress (string)" style="text;strokeColor=none;fillColor=none;align=left;verticalAlign=top;spacingLeft=4;spacingRight=4;overflow=hidden;rotatable=0;points=[[0,0.5],[1,0.5]];portConstraint=eastwest;whiteSpace=wrap;html=1;rounded=0;fontStyle=4" parent="8NdlcEFQy9pJKiZ9Ffve-25" vertex="1">
          <mxGeometry y="156" width="340" height="26" as="geometry" />
        </mxCell>
        <mxCell id="EkHCMVU59h59knE90Hll-38" value="+&amp;nbsp;AssertStringOnLength (string, int, string)" style="text;strokeColor=none;fillColor=none;align=left;verticalAlign=top;spacingLeft=4;spacingRight=4;overflow=hidden;rotatable=0;points=[[0,0.5],[1,0.5]];portConstraint=eastwest;whiteSpace=wrap;html=1;rounded=0;fontStyle=4" parent="8NdlcEFQy9pJKiZ9Ffve-25" vertex="1">
          <mxGeometry y="182" width="340" height="26" as="geometry" />
        </mxCell>
        <mxCell id="EkHCMVU59h59knE90Hll-3" value="Item" style="swimlane;fontStyle=1;align=center;verticalAlign=top;childLayout=stackLayout;horizontal=1;startSize=26;horizontalStack=0;resizeParent=1;resizeParentMax=0;resizeLast=0;collapsible=1;marginBottom=0;whiteSpace=wrap;html=1;" parent="1" vertex="1">
          <mxGeometry x="530" y="280" width="230" height="380" as="geometry" />
        </mxCell>
        <mxCell id="EkHCMVU59h59knE90Hll-13" value="- _id: int" style="text;strokeColor=none;fillColor=none;align=left;verticalAlign=top;spacingLeft=4;spacingRight=4;overflow=hidden;rotatable=0;points=[[0,0.5],[1,0.5]];portConstraint=eastwest;whiteSpace=wrap;html=1;" parent="EkHCMVU59h59knE90Hll-3" vertex="1">
          <mxGeometry y="26" width="230" height="26" as="geometry" />
        </mxCell>
        <mxCell id="EkHCMVU59h59knE90Hll-12" value="- _allItemsCount: int" style="text;strokeColor=none;fillColor=none;align=left;verticalAlign=top;spacingLeft=4;spacingRight=4;overflow=hidden;rotatable=0;points=[[0,0.5],[1,0.5]];portConstraint=eastwest;whiteSpace=wrap;html=1;fontStyle=4" parent="EkHCMVU59h59knE90Hll-3" vertex="1">
          <mxGeometry y="52" width="230" height="26" as="geometry" />
        </mxCell>
        <mxCell id="EkHCMVU59h59knE90Hll-11" value="- _name: string" style="text;strokeColor=none;fillColor=none;align=left;verticalAlign=top;spacingLeft=4;spacingRight=4;overflow=hidden;rotatable=0;points=[[0,0.5],[1,0.5]];portConstraint=eastwest;whiteSpace=wrap;html=1;" parent="EkHCMVU59h59knE90Hll-3" vertex="1">
          <mxGeometry y="78" width="230" height="26" as="geometry" />
        </mxCell>
        <mxCell id="EkHCMVU59h59knE90Hll-8" value="- _info: string" style="text;strokeColor=none;fillColor=none;align=left;verticalAlign=top;spacingLeft=4;spacingRight=4;overflow=hidden;rotatable=0;points=[[0,0.5],[1,0.5]];portConstraint=eastwest;whiteSpace=wrap;html=1;" parent="EkHCMVU59h59knE90Hll-3" vertex="1">
          <mxGeometry y="104" width="230" height="26" as="geometry" />
        </mxCell>
        <mxCell id="EkHCMVU59h59knE90Hll-4" value="- _cost: int" style="text;strokeColor=none;fillColor=none;align=left;verticalAlign=top;spacingLeft=4;spacingRight=4;overflow=hidden;rotatable=0;points=[[0,0.5],[1,0.5]];portConstraint=eastwest;whiteSpace=wrap;html=1;" parent="EkHCMVU59h59knE90Hll-3" vertex="1">
          <mxGeometry y="130" width="230" height="26" as="geometry" />
        </mxCell>
        <mxCell id="EkHCMVU59h59knE90Hll-5" value="" style="line;strokeWidth=1;fillColor=none;align=left;verticalAlign=middle;spacingTop=-1;spacingLeft=3;spacingRight=3;rotatable=0;labelPosition=right;points=[];portConstraint=eastwest;strokeColor=inherit;" parent="EkHCMVU59h59knE90Hll-3" vertex="1">
          <mxGeometry y="156" width="230" height="8" as="geometry" />
        </mxCell>
        <mxCell id="EkHCMVU59h59knE90Hll-6" value="+ Name {get;set;}: string" style="text;strokeColor=none;fillColor=none;align=left;verticalAlign=top;spacingLeft=4;spacingRight=4;overflow=hidden;rotatable=0;points=[[0,0.5],[1,0.5]];portConstraint=eastwest;whiteSpace=wrap;html=1;" parent="EkHCMVU59h59knE90Hll-3" vertex="1">
          <mxGeometry y="164" width="230" height="26" as="geometry" />
        </mxCell>
        <mxCell id="EkHCMVU59h59knE90Hll-7" value="+ Info {get;set;}: string" style="text;strokeColor=none;fillColor=none;align=left;verticalAlign=top;spacingLeft=4;spacingRight=4;overflow=hidden;rotatable=0;points=[[0,0.5],[1,0.5]];portConstraint=eastwest;whiteSpace=wrap;html=1;" parent="EkHCMVU59h59knE90Hll-3" vertex="1">
          <mxGeometry y="190" width="230" height="26" as="geometry" />
        </mxCell>
        <mxCell id="EkHCMVU59h59knE90Hll-14" value="+ Cost {get;set;}: int" style="text;strokeColor=none;fillColor=none;align=left;verticalAlign=top;spacingLeft=4;spacingRight=4;overflow=hidden;rotatable=0;points=[[0,0.5],[1,0.5]];portConstraint=eastwest;whiteSpace=wrap;html=1;" parent="EkHCMVU59h59knE90Hll-3" vertex="1">
          <mxGeometry y="216" width="230" height="26" as="geometry" />
        </mxCell>
        <mxCell id="EkHCMVU59h59knE90Hll-15" value="+ AllItemsCount {get:private set;}: int" style="text;strokeColor=none;fillColor=none;align=left;verticalAlign=top;spacingLeft=4;spacingRight=4;overflow=hidden;rotatable=0;points=[[0,0.5],[1,0.5]];portConstraint=eastwest;whiteSpace=wrap;html=1;fontStyle=0" parent="EkHCMVU59h59knE90Hll-3" vertex="1">
          <mxGeometry y="242" width="230" height="26" as="geometry" />
        </mxCell>
        <mxCell id="EkHCMVU59h59knE90Hll-16" value="+ Id {get;private set;}: int" style="text;strokeColor=none;fillColor=none;align=left;verticalAlign=top;spacingLeft=4;spacingRight=4;overflow=hidden;rotatable=0;points=[[0,0.5],[1,0.5]];portConstraint=eastwest;whiteSpace=wrap;html=1;" parent="EkHCMVU59h59knE90Hll-3" vertex="1">
          <mxGeometry y="268" width="230" height="26" as="geometry" />
        </mxCell>
        <mxCell id="EkHCMVU59h59knE90Hll-17" value="+ Category {get;set;): Category" style="text;strokeColor=none;fillColor=none;align=left;verticalAlign=top;spacingLeft=4;spacingRight=4;overflow=hidden;rotatable=0;points=[[0,0.5],[1,0.5]];portConstraint=eastwest;whiteSpace=wrap;html=1;" parent="EkHCMVU59h59knE90Hll-3" vertex="1">
          <mxGeometry y="294" width="230" height="26" as="geometry" />
        </mxCell>
        <mxCell id="sbkK2AnOCJ7gOjGIv6pn-34" value="+ Item (): void" style="text;strokeColor=none;fillColor=none;align=left;verticalAlign=top;spacingLeft=4;spacingRight=4;overflow=hidden;rotatable=0;points=[[0,0.5],[1,0.5]];portConstraint=eastwest;whiteSpace=wrap;html=1;" parent="EkHCMVU59h59knE90Hll-3" vertex="1">
          <mxGeometry y="320" width="230" height="26" as="geometry" />
        </mxCell>
        <mxCell id="sbkK2AnOCJ7gOjGIv6pn-35" value="+ Item (string, string, inf, Category): void" style="text;strokeColor=none;fillColor=none;align=left;verticalAlign=top;spacingLeft=4;spacingRight=4;overflow=hidden;rotatable=0;points=[[0,0.5],[1,0.5]];portConstraint=eastwest;whiteSpace=wrap;html=1;" parent="EkHCMVU59h59knE90Hll-3" vertex="1">
          <mxGeometry y="346" width="230" height="34" as="geometry" />
        </mxCell>
        <mxCell id="EkHCMVU59h59knE90Hll-18" value="Customer" style="swimlane;fontStyle=1;align=center;verticalAlign=top;childLayout=stackLayout;horizontal=1;startSize=26;horizontalStack=0;resizeParent=1;resizeParentMax=0;resizeLast=0;collapsible=1;marginBottom=0;whiteSpace=wrap;html=1;" parent="1" vertex="1">
          <mxGeometry x="40" y="281" width="240" height="406" as="geometry" />
        </mxCell>
        <mxCell id="EkHCMVU59h59knE90Hll-24" value="- _id: int" style="text;strokeColor=none;fillColor=none;align=left;verticalAlign=top;spacingLeft=4;spacingRight=4;overflow=hidden;rotatable=0;points=[[0,0.5],[1,0.5]];portConstraint=eastwest;whiteSpace=wrap;html=1;" parent="EkHCMVU59h59knE90Hll-18" vertex="1">
          <mxGeometry y="26" width="240" height="26" as="geometry" />
        </mxCell>
        <mxCell id="EkHCMVU59h59knE90Hll-23" value="- _allCustomersCount: int" style="text;strokeColor=none;fillColor=none;align=left;verticalAlign=top;spacingLeft=4;spacingRight=4;overflow=hidden;rotatable=0;points=[[0,0.5],[1,0.5]];portConstraint=eastwest;whiteSpace=wrap;html=1;fontStyle=4" parent="EkHCMVU59h59knE90Hll-18" vertex="1">
          <mxGeometry y="52" width="240" height="26" as="geometry" />
        </mxCell>
        <mxCell id="EkHCMVU59h59knE90Hll-22" value="- _fullname: string" style="text;strokeColor=none;fillColor=none;align=left;verticalAlign=top;spacingLeft=4;spacingRight=4;overflow=hidden;rotatable=0;points=[[0,0.5],[1,0.5]];portConstraint=eastwest;whiteSpace=wrap;html=1;" parent="EkHCMVU59h59knE90Hll-18" vertex="1">
          <mxGeometry y="78" width="240" height="26" as="geometry" />
        </mxCell>
        <mxCell id="EkHCMVU59h59knE90Hll-19" value="- _address: Address" style="text;strokeColor=none;fillColor=none;align=left;verticalAlign=top;spacingLeft=4;spacingRight=4;overflow=hidden;rotatable=0;points=[[0,0.5],[1,0.5]];portConstraint=eastwest;whiteSpace=wrap;html=1;" parent="EkHCMVU59h59knE90Hll-18" vertex="1">
          <mxGeometry y="104" width="240" height="26" as="geometry" />
        </mxCell>
        <mxCell id="-F8Q1V_g5fa-UAAVx8Ue-2" value="- _orders: BindingList&amp;lt;Order&amp;gt;" style="text;strokeColor=none;fillColor=none;align=left;verticalAlign=top;spacingLeft=4;spacingRight=4;overflow=hidden;rotatable=0;points=[[0,0.5],[1,0.5]];portConstraint=eastwest;whiteSpace=wrap;html=1;" parent="EkHCMVU59h59knE90Hll-18" vertex="1">
          <mxGeometry y="130" width="240" height="26" as="geometry" />
        </mxCell>
        <mxCell id="EkHCMVU59h59knE90Hll-20" value="" style="line;strokeWidth=1;fillColor=none;align=left;verticalAlign=middle;spacingTop=-1;spacingLeft=3;spacingRight=3;rotatable=0;labelPosition=right;points=[];portConstraint=eastwest;strokeColor=inherit;" parent="EkHCMVU59h59knE90Hll-18" vertex="1">
          <mxGeometry y="156" width="240" height="20" as="geometry" />
        </mxCell>
        <mxCell id="EkHCMVU59h59knE90Hll-21" value="+ Fullname {get;set;}: string" style="text;strokeColor=none;fillColor=none;align=left;verticalAlign=top;spacingLeft=4;spacingRight=4;overflow=hidden;rotatable=0;points=[[0,0.5],[1,0.5]];portConstraint=eastwest;whiteSpace=wrap;html=1;" parent="EkHCMVU59h59knE90Hll-18" vertex="1">
          <mxGeometry y="176" width="240" height="26" as="geometry" />
        </mxCell>
        <mxCell id="EkHCMVU59h59knE90Hll-25" value="+ Address {get;set}: Address" style="text;strokeColor=none;fillColor=none;align=left;verticalAlign=top;spacingLeft=4;spacingRight=4;overflow=hidden;rotatable=0;points=[[0,0.5],[1,0.5]];portConstraint=eastwest;whiteSpace=wrap;html=1;" parent="EkHCMVU59h59knE90Hll-18" vertex="1">
          <mxGeometry y="202" width="240" height="26" as="geometry" />
        </mxCell>
        <mxCell id="-F8Q1V_g5fa-UAAVx8Ue-1" value="+ OrderList {get;set;}: BindingList&amp;lt;Order&amp;gt;" style="text;strokeColor=none;fillColor=none;align=left;verticalAlign=top;spacingLeft=4;spacingRight=4;overflow=hidden;rotatable=0;points=[[0,0.5],[1,0.5]];portConstraint=eastwest;whiteSpace=wrap;html=1;" parent="EkHCMVU59h59knE90Hll-18" vertex="1">
          <mxGeometry y="228" width="240" height="22" as="geometry" />
        </mxCell>
        <mxCell id="EkHCMVU59h59knE90Hll-26" value="+ AllItemsCount {get;private set;}: int" style="text;strokeColor=none;fillColor=none;align=left;verticalAlign=top;spacingLeft=4;spacingRight=4;overflow=hidden;rotatable=0;points=[[0,0.5],[1,0.5]];portConstraint=eastwest;whiteSpace=wrap;html=1;" parent="EkHCMVU59h59knE90Hll-18" vertex="1">
          <mxGeometry y="250" width="240" height="26" as="geometry" />
        </mxCell>
        <mxCell id="EkHCMVU59h59knE90Hll-27" value="+ Id {get;private set:} int" style="text;strokeColor=none;fillColor=none;align=left;verticalAlign=top;spacingLeft=4;spacingRight=4;overflow=hidden;rotatable=0;points=[[0,0.5],[1,0.5]];portConstraint=eastwest;whiteSpace=wrap;html=1;" parent="EkHCMVU59h59knE90Hll-18" vertex="1">
          <mxGeometry y="276" width="240" height="26" as="geometry" />
        </mxCell>
        <mxCell id="MhgVoDi9bUxvAhyQU6as-1" value="+ IsPriority {get;set;}: bool" style="text;strokeColor=none;fillColor=none;align=left;verticalAlign=top;spacingLeft=4;spacingRight=4;overflow=hidden;rotatable=0;points=[[0,0.5],[1,0.5]];portConstraint=eastwest;whiteSpace=wrap;html=1;" vertex="1" parent="EkHCMVU59h59knE90Hll-18">
          <mxGeometry y="302" width="240" height="28" as="geometry" />
        </mxCell>
        <mxCell id="sbkK2AnOCJ7gOjGIv6pn-32" value="+ Customer (): void" style="text;strokeColor=none;fillColor=none;align=left;verticalAlign=top;spacingLeft=4;spacingRight=4;overflow=hidden;rotatable=0;points=[[0,0.5],[1,0.5]];portConstraint=eastwest;whiteSpace=wrap;html=1;" parent="EkHCMVU59h59knE90Hll-18" vertex="1">
          <mxGeometry y="330" width="240" height="26" as="geometry" />
        </mxCell>
        <mxCell id="sbkK2AnOCJ7gOjGIv6pn-33" value="+ Customer (string, int, string, string, string, string, string): void" style="text;strokeColor=none;fillColor=none;align=left;verticalAlign=top;spacingLeft=4;spacingRight=4;overflow=hidden;rotatable=0;points=[[0,0.5],[1,0.5]];portConstraint=eastwest;whiteSpace=wrap;html=1;" parent="EkHCMVU59h59knE90Hll-18" vertex="1">
          <mxGeometry y="356" width="240" height="50" as="geometry" />
        </mxCell>
        <mxCell id="hicgtg7otHuUIutlruOk-7" value="Address" style="swimlane;fontStyle=1;align=center;verticalAlign=top;childLayout=stackLayout;horizontal=1;startSize=26;horizontalStack=0;resizeParent=1;resizeParentMax=0;resizeLast=0;collapsible=1;marginBottom=0;whiteSpace=wrap;html=1;" parent="1" vertex="1">
          <mxGeometry x="-210" y="260" width="180" height="420" as="geometry" />
        </mxCell>
        <mxCell id="hicgtg7otHuUIutlruOk-15" value="- _index: int" style="text;strokeColor=none;fillColor=none;align=left;verticalAlign=top;spacingLeft=4;spacingRight=4;overflow=hidden;rotatable=0;points=[[0,0.5],[1,0.5]];portConstraint=eastwest;whiteSpace=wrap;html=1;" parent="hicgtg7otHuUIutlruOk-7" vertex="1">
          <mxGeometry y="26" width="180" height="26" as="geometry" />
        </mxCell>
        <mxCell id="hicgtg7otHuUIutlruOk-14" value="- _country: string" style="text;strokeColor=none;fillColor=none;align=left;verticalAlign=top;spacingLeft=4;spacingRight=4;overflow=hidden;rotatable=0;points=[[0,0.5],[1,0.5]];portConstraint=eastwest;whiteSpace=wrap;html=1;" parent="hicgtg7otHuUIutlruOk-7" vertex="1">
          <mxGeometry y="52" width="180" height="26" as="geometry" />
        </mxCell>
        <mxCell id="hicgtg7otHuUIutlruOk-13" value="- _city: string" style="text;strokeColor=none;fillColor=none;align=left;verticalAlign=top;spacingLeft=4;spacingRight=4;overflow=hidden;rotatable=0;points=[[0,0.5],[1,0.5]];portConstraint=eastwest;whiteSpace=wrap;html=1;" parent="hicgtg7otHuUIutlruOk-7" vertex="1">
          <mxGeometry y="78" width="180" height="26" as="geometry" />
        </mxCell>
        <mxCell id="hicgtg7otHuUIutlruOk-12" value="- _street: string" style="text;strokeColor=none;fillColor=none;align=left;verticalAlign=top;spacingLeft=4;spacingRight=4;overflow=hidden;rotatable=0;points=[[0,0.5],[1,0.5]];portConstraint=eastwest;whiteSpace=wrap;html=1;" parent="hicgtg7otHuUIutlruOk-7" vertex="1">
          <mxGeometry y="104" width="180" height="26" as="geometry" />
        </mxCell>
        <mxCell id="hicgtg7otHuUIutlruOk-11" value="- _building: string" style="text;strokeColor=none;fillColor=none;align=left;verticalAlign=top;spacingLeft=4;spacingRight=4;overflow=hidden;rotatable=0;points=[[0,0.5],[1,0.5]];portConstraint=eastwest;whiteSpace=wrap;html=1;" parent="hicgtg7otHuUIutlruOk-7" vertex="1">
          <mxGeometry y="130" width="180" height="26" as="geometry" />
        </mxCell>
        <mxCell id="hicgtg7otHuUIutlruOk-8" value="- _apartment: string" style="text;strokeColor=none;fillColor=none;align=left;verticalAlign=top;spacingLeft=4;spacingRight=4;overflow=hidden;rotatable=0;points=[[0,0.5],[1,0.5]];portConstraint=eastwest;whiteSpace=wrap;html=1;" parent="hicgtg7otHuUIutlruOk-7" vertex="1">
          <mxGeometry y="156" width="180" height="26" as="geometry" />
        </mxCell>
        <mxCell id="hicgtg7otHuUIutlruOk-9" value="" style="line;strokeWidth=1;fillColor=none;align=left;verticalAlign=middle;spacingTop=-1;spacingLeft=3;spacingRight=3;rotatable=0;labelPosition=right;points=[];portConstraint=eastwest;strokeColor=inherit;" parent="hicgtg7otHuUIutlruOk-7" vertex="1">
          <mxGeometry y="182" width="180" height="8" as="geometry" />
        </mxCell>
        <mxCell id="hicgtg7otHuUIutlruOk-10" value="+ Index {get;set;}: int" style="text;strokeColor=none;fillColor=none;align=left;verticalAlign=top;spacingLeft=4;spacingRight=4;overflow=hidden;rotatable=0;points=[[0,0.5],[1,0.5]];portConstraint=eastwest;whiteSpace=wrap;html=1;" parent="hicgtg7otHuUIutlruOk-7" vertex="1">
          <mxGeometry y="190" width="180" height="26" as="geometry" />
        </mxCell>
        <mxCell id="hicgtg7otHuUIutlruOk-16" value="+ Country {get;set;}: string" style="text;strokeColor=none;fillColor=none;align=left;verticalAlign=top;spacingLeft=4;spacingRight=4;overflow=hidden;rotatable=0;points=[[0,0.5],[1,0.5]];portConstraint=eastwest;whiteSpace=wrap;html=1;" parent="hicgtg7otHuUIutlruOk-7" vertex="1">
          <mxGeometry y="216" width="180" height="26" as="geometry" />
        </mxCell>
        <mxCell id="hicgtg7otHuUIutlruOk-17" value="+ City {get;set;}: string" style="text;strokeColor=none;fillColor=none;align=left;verticalAlign=top;spacingLeft=4;spacingRight=4;overflow=hidden;rotatable=0;points=[[0,0.5],[1,0.5]];portConstraint=eastwest;whiteSpace=wrap;html=1;" parent="hicgtg7otHuUIutlruOk-7" vertex="1">
          <mxGeometry y="242" width="180" height="26" as="geometry" />
        </mxCell>
        <mxCell id="hicgtg7otHuUIutlruOk-18" value="+ Street {get;set;}: string" style="text;strokeColor=none;fillColor=none;align=left;verticalAlign=top;spacingLeft=4;spacingRight=4;overflow=hidden;rotatable=0;points=[[0,0.5],[1,0.5]];portConstraint=eastwest;whiteSpace=wrap;html=1;" parent="hicgtg7otHuUIutlruOk-7" vertex="1">
          <mxGeometry y="268" width="180" height="26" as="geometry" />
        </mxCell>
        <mxCell id="hicgtg7otHuUIutlruOk-19" value="+ Building {get;set;}: string" style="text;strokeColor=none;fillColor=none;align=left;verticalAlign=top;spacingLeft=4;spacingRight=4;overflow=hidden;rotatable=0;points=[[0,0.5],[1,0.5]];portConstraint=eastwest;whiteSpace=wrap;html=1;" parent="hicgtg7otHuUIutlruOk-7" vertex="1">
          <mxGeometry y="294" width="180" height="26" as="geometry" />
        </mxCell>
        <mxCell id="hicgtg7otHuUIutlruOk-20" value="+ Apartment {get;set;}: string" style="text;strokeColor=none;fillColor=none;align=left;verticalAlign=top;spacingLeft=4;spacingRight=4;overflow=hidden;rotatable=0;points=[[0,0.5],[1,0.5]];portConstraint=eastwest;whiteSpace=wrap;html=1;" parent="hicgtg7otHuUIutlruOk-7" vertex="1">
          <mxGeometry y="320" width="180" height="26" as="geometry" />
        </mxCell>
        <mxCell id="sbkK2AnOCJ7gOjGIv6pn-30" value="+ Address (): void" style="text;strokeColor=none;fillColor=none;align=left;verticalAlign=top;spacingLeft=4;spacingRight=4;overflow=hidden;rotatable=0;points=[[0,0.5],[1,0.5]];portConstraint=eastwest;whiteSpace=wrap;html=1;" parent="hicgtg7otHuUIutlruOk-7" vertex="1">
          <mxGeometry y="346" width="180" height="26" as="geometry" />
        </mxCell>
        <mxCell id="sbkK2AnOCJ7gOjGIv6pn-31" value="+ Address (int, string, string, string, string, string): void" style="text;strokeColor=none;fillColor=none;align=left;verticalAlign=top;spacingLeft=4;spacingRight=4;overflow=hidden;rotatable=0;points=[[0,0.5],[1,0.5]];portConstraint=eastwest;whiteSpace=wrap;html=1;" parent="hicgtg7otHuUIutlruOk-7" vertex="1">
          <mxGeometry y="372" width="180" height="48" as="geometry" />
        </mxCell>
        <mxCell id="hicgtg7otHuUIutlruOk-21" value="1" style="endArrow=open;html=1;endSize=12;startArrow=diamondThin;startSize=14;startFill=1;edgeStyle=orthogonalEdgeStyle;align=right;verticalAlign=top;rounded=0;entryX=0.995;entryY=0.517;entryDx=0;entryDy=0;entryPerimeter=0;exitX=0;exitY=0.5;exitDx=0;exitDy=0;exitPerimeter=0;" parent="1" source="EkHCMVU59h59knE90Hll-20" target="hicgtg7otHuUIutlruOk-9" edge="1">
          <mxGeometry x="-1" y="3" relative="1" as="geometry">
            <mxPoint x="30" y="440" as="sourcePoint" />
            <mxPoint x="-20" y="440" as="targetPoint" />
          </mxGeometry>
        </mxCell>
        <mxCell id="hicgtg7otHuUIutlruOk-22" value="&lt;font style=&quot;font-size: 14px;&quot;&gt;1&lt;/font&gt;" style="text;html=1;align=center;verticalAlign=middle;resizable=0;points=[];autosize=1;strokeColor=none;fillColor=none;" parent="1" vertex="1">
          <mxGeometry x="-40" y="440" width="30" height="30" as="geometry" />
        </mxCell>
        <mxCell id="sbkK2AnOCJ7gOjGIv6pn-1" value="Store" style="swimlane;fontStyle=1;align=center;verticalAlign=top;childLayout=stackLayout;horizontal=1;startSize=26;horizontalStack=0;resizeParent=1;resizeParentMax=0;resizeLast=0;collapsible=1;marginBottom=0;whiteSpace=wrap;html=1;" parent="1" vertex="1">
          <mxGeometry x="280" y="710" width="230" height="138" as="geometry" />
        </mxCell>
        <mxCell id="sbkK2AnOCJ7gOjGIv6pn-5" value="- _items: List&amp;lt;Item&amp;gt;" style="text;strokeColor=none;fillColor=none;align=left;verticalAlign=top;spacingLeft=4;spacingRight=4;overflow=hidden;rotatable=0;points=[[0,0.5],[1,0.5]];portConstraint=eastwest;whiteSpace=wrap;html=1;" parent="sbkK2AnOCJ7gOjGIv6pn-1" vertex="1">
          <mxGeometry y="26" width="230" height="26" as="geometry" />
        </mxCell>
        <mxCell id="sbkK2AnOCJ7gOjGIv6pn-2" value="- _customers: List&amp;lt;Customer&amp;gt;" style="text;strokeColor=none;fillColor=none;align=left;verticalAlign=top;spacingLeft=4;spacingRight=4;overflow=hidden;rotatable=0;points=[[0,0.5],[1,0.5]];portConstraint=eastwest;whiteSpace=wrap;html=1;" parent="sbkK2AnOCJ7gOjGIv6pn-1" vertex="1">
          <mxGeometry y="52" width="230" height="26" as="geometry" />
        </mxCell>
        <mxCell id="sbkK2AnOCJ7gOjGIv6pn-3" value="" style="line;strokeWidth=1;fillColor=none;align=left;verticalAlign=middle;spacingTop=-1;spacingLeft=3;spacingRight=3;rotatable=0;labelPosition=right;points=[];portConstraint=eastwest;strokeColor=inherit;" parent="sbkK2AnOCJ7gOjGIv6pn-1" vertex="1">
          <mxGeometry y="78" width="230" height="8" as="geometry" />
        </mxCell>
        <mxCell id="sbkK2AnOCJ7gOjGIv6pn-4" value="+ Items {get;set;}: List&amp;lt;Item&amp;gt;" style="text;strokeColor=none;fillColor=none;align=left;verticalAlign=top;spacingLeft=4;spacingRight=4;overflow=hidden;rotatable=0;points=[[0,0.5],[1,0.5]];portConstraint=eastwest;whiteSpace=wrap;html=1;" parent="sbkK2AnOCJ7gOjGIv6pn-1" vertex="1">
          <mxGeometry y="86" width="230" height="26" as="geometry" />
        </mxCell>
        <mxCell id="sbkK2AnOCJ7gOjGIv6pn-6" value="+ Customers {get;set;}: List&amp;lt;Customer&amp;gt;" style="text;strokeColor=none;fillColor=none;align=left;verticalAlign=top;spacingLeft=4;spacingRight=4;overflow=hidden;rotatable=0;points=[[0,0.5],[1,0.5]];portConstraint=eastwest;whiteSpace=wrap;html=1;" parent="sbkK2AnOCJ7gOjGIv6pn-1" vertex="1">
          <mxGeometry y="112" width="230" height="26" as="geometry" />
        </mxCell>
        <mxCell id="sbkK2AnOCJ7gOjGIv6pn-9" value="" style="endArrow=diamondThin;endFill=1;endSize=24;html=1;rounded=0;entryX=1.001;entryY=0.139;entryDx=0;entryDy=0;entryPerimeter=0;exitX=0.499;exitY=0.998;exitDx=0;exitDy=0;exitPerimeter=0;" parent="1" source="sbkK2AnOCJ7gOjGIv6pn-35" target="sbkK2AnOCJ7gOjGIv6pn-4" edge="1">
          <mxGeometry width="160" relative="1" as="geometry">
            <mxPoint x="712" y="663.93" as="sourcePoint" />
            <mxPoint x="540" y="793.93" as="targetPoint" />
            <Array as="points">
              <mxPoint x="645" y="800" />
            </Array>
          </mxGeometry>
        </mxCell>
        <mxCell id="sbkK2AnOCJ7gOjGIv6pn-10" value="" style="endArrow=classic;html=1;rounded=0;" parent="1" edge="1">
          <mxGeometry width="50" height="50" relative="1" as="geometry">
            <mxPoint x="644.8" y="710" as="sourcePoint" />
            <mxPoint x="644.8" y="660" as="targetPoint" />
          </mxGeometry>
        </mxCell>
        <mxCell id="sbkK2AnOCJ7gOjGIv6pn-12" value="&lt;font style=&quot;font-size: 20px;&quot;&gt;*&lt;/font&gt;" style="text;html=1;align=center;verticalAlign=middle;resizable=0;points=[];autosize=1;strokeColor=none;fillColor=none;" parent="1" vertex="1">
          <mxGeometry x="640" y="660" width="30" height="40" as="geometry" />
        </mxCell>
        <mxCell id="sbkK2AnOCJ7gOjGIv6pn-13" value="&lt;font style=&quot;font-size: 14px;&quot;&gt;1&lt;/font&gt;" style="text;html=1;align=center;verticalAlign=middle;resizable=0;points=[];autosize=1;strokeColor=none;fillColor=none;" parent="1" vertex="1">
          <mxGeometry x="510" y="764" width="30" height="30" as="geometry" />
        </mxCell>
        <mxCell id="sbkK2AnOCJ7gOjGIv6pn-14" value="" style="endArrow=diamondThin;endFill=1;endSize=24;html=1;rounded=0;entryX=0.001;entryY=0.142;entryDx=0;entryDy=0;entryPerimeter=0;" parent="1" target="sbkK2AnOCJ7gOjGIv6pn-4" edge="1">
          <mxGeometry width="160" relative="1" as="geometry">
            <mxPoint x="160" y="690" as="sourcePoint" />
            <mxPoint x="270" y="794" as="targetPoint" />
            <Array as="points">
              <mxPoint x="160" y="800" />
            </Array>
          </mxGeometry>
        </mxCell>
        <mxCell id="sbkK2AnOCJ7gOjGIv6pn-15" value="&lt;font style=&quot;font-size: 14px;&quot;&gt;1&lt;/font&gt;" style="text;html=1;align=center;verticalAlign=middle;resizable=0;points=[];autosize=1;strokeColor=none;fillColor=none;" parent="1" vertex="1">
          <mxGeometry x="250" y="764" width="30" height="30" as="geometry" />
        </mxCell>
        <mxCell id="sbkK2AnOCJ7gOjGIv6pn-16" value="&lt;font style=&quot;font-size: 20px;&quot;&gt;*&lt;/font&gt;" style="text;html=1;align=center;verticalAlign=middle;resizable=0;points=[];autosize=1;strokeColor=none;fillColor=none;" parent="1" vertex="1">
          <mxGeometry x="160" y="687" width="30" height="40" as="geometry" />
        </mxCell>
        <mxCell id="sbkK2AnOCJ7gOjGIv6pn-17" value="" style="endArrow=classic;html=1;rounded=0;entryX=0.5;entryY=1;entryDx=0;entryDy=0;" parent="1" target="EkHCMVU59h59knE90Hll-18" edge="1">
          <mxGeometry width="50" height="50" relative="1" as="geometry">
            <mxPoint x="159.76" y="764" as="sourcePoint" />
            <mxPoint x="160" y="690" as="targetPoint" />
          </mxGeometry>
        </mxCell>
        <mxCell id="sbkK2AnOCJ7gOjGIv6pn-18" value="«enumeration»&lt;br&gt;Category" style="swimlane;fontStyle=0;childLayout=stackLayout;horizontal=1;startSize=40;fillColor=none;horizontalStack=0;resizeParent=1;resizeParentMax=0;resizeLast=0;collapsible=1;marginBottom=0;whiteSpace=wrap;html=1;" parent="1" vertex="1">
          <mxGeometry x="827" y="316" width="140" height="222" as="geometry">
            <mxRectangle x="800" y="350" width="120" height="40" as="alternateBounds" />
          </mxGeometry>
        </mxCell>
        <mxCell id="sbkK2AnOCJ7gOjGIv6pn-19" value="PCcomponents" style="text;strokeColor=none;fillColor=none;align=left;verticalAlign=top;spacingLeft=4;spacingRight=4;overflow=hidden;rotatable=0;points=[[0,0.5],[1,0.5]];portConstraint=eastwest;whiteSpace=wrap;html=1;" parent="sbkK2AnOCJ7gOjGIv6pn-18" vertex="1">
          <mxGeometry y="40" width="140" height="26" as="geometry" />
        </mxCell>
        <mxCell id="sbkK2AnOCJ7gOjGIv6pn-20" value="Phones" style="text;strokeColor=none;fillColor=none;align=left;verticalAlign=top;spacingLeft=4;spacingRight=4;overflow=hidden;rotatable=0;points=[[0,0.5],[1,0.5]];portConstraint=eastwest;whiteSpace=wrap;html=1;" parent="sbkK2AnOCJ7gOjGIv6pn-18" vertex="1">
          <mxGeometry y="66" width="140" height="26" as="geometry" />
        </mxCell>
        <mxCell id="sbkK2AnOCJ7gOjGIv6pn-21" value="DomesticAppliances" style="text;strokeColor=none;fillColor=none;align=left;verticalAlign=top;spacingLeft=4;spacingRight=4;overflow=hidden;rotatable=0;points=[[0,0.5],[1,0.5]];portConstraint=eastwest;whiteSpace=wrap;html=1;" parent="sbkK2AnOCJ7gOjGIv6pn-18" vertex="1">
          <mxGeometry y="92" width="140" height="26" as="geometry" />
        </mxCell>
        <mxCell id="sbkK2AnOCJ7gOjGIv6pn-22" value="Building" style="text;strokeColor=none;fillColor=none;align=left;verticalAlign=top;spacingLeft=4;spacingRight=4;overflow=hidden;rotatable=0;points=[[0,0.5],[1,0.5]];portConstraint=eastwest;whiteSpace=wrap;html=1;" parent="sbkK2AnOCJ7gOjGIv6pn-18" vertex="1">
          <mxGeometry y="118" width="140" height="26" as="geometry" />
        </mxCell>
        <mxCell id="sbkK2AnOCJ7gOjGIv6pn-23" value="Furniture" style="text;strokeColor=none;fillColor=none;align=left;verticalAlign=top;spacingLeft=4;spacingRight=4;overflow=hidden;rotatable=0;points=[[0,0.5],[1,0.5]];portConstraint=eastwest;whiteSpace=wrap;html=1;" parent="sbkK2AnOCJ7gOjGIv6pn-18" vertex="1">
          <mxGeometry y="144" width="140" height="26" as="geometry" />
        </mxCell>
        <mxCell id="sbkK2AnOCJ7gOjGIv6pn-24" value="Entertainments" style="text;strokeColor=none;fillColor=none;align=left;verticalAlign=top;spacingLeft=4;spacingRight=4;overflow=hidden;rotatable=0;points=[[0,0.5],[1,0.5]];portConstraint=eastwest;whiteSpace=wrap;html=1;" parent="sbkK2AnOCJ7gOjGIv6pn-18" vertex="1">
          <mxGeometry y="170" width="140" height="26" as="geometry" />
        </mxCell>
        <mxCell id="sbkK2AnOCJ7gOjGIv6pn-25" value="CarGoods" style="text;strokeColor=none;fillColor=none;align=left;verticalAlign=top;spacingLeft=4;spacingRight=4;overflow=hidden;rotatable=0;points=[[0,0.5],[1,0.5]];portConstraint=eastwest;whiteSpace=wrap;html=1;" parent="sbkK2AnOCJ7gOjGIv6pn-18" vertex="1">
          <mxGeometry y="196" width="140" height="26" as="geometry" />
        </mxCell>
        <mxCell id="sbkK2AnOCJ7gOjGIv6pn-26" value="Use" style="endArrow=open;endSize=12;dashed=1;html=1;rounded=0;entryX=0.5;entryY=0;entryDx=0;entryDy=0;exitX=0.003;exitY=0.206;exitDx=0;exitDy=0;exitPerimeter=0;" parent="1" source="EkHCMVU59h59knE90Hll-35" target="hicgtg7otHuUIutlruOk-7" edge="1">
          <mxGeometry width="160" relative="1" as="geometry">
            <mxPoint x="180" y="160" as="sourcePoint" />
            <mxPoint x="-120" y="240" as="targetPoint" />
            <Array as="points">
              <mxPoint x="-120" y="160" />
            </Array>
          </mxGeometry>
        </mxCell>
        <mxCell id="sbkK2AnOCJ7gOjGIv6pn-27" value="Use" style="endArrow=open;endSize=12;dashed=1;html=1;rounded=0;entryX=0.5;entryY=0;entryDx=0;entryDy=0;" parent="1" target="EkHCMVU59h59knE90Hll-18" edge="1">
          <mxGeometry width="160" relative="1" as="geometry">
            <mxPoint x="210" y="193" as="sourcePoint" />
            <mxPoint x="160" y="287" as="targetPoint" />
            <Array as="points">
              <mxPoint x="160" y="193" />
            </Array>
          </mxGeometry>
        </mxCell>
        <mxCell id="sbkK2AnOCJ7gOjGIv6pn-28" value="Use" style="endArrow=open;endSize=12;dashed=1;html=1;rounded=0;entryX=0.5;entryY=0;entryDx=0;entryDy=0;exitX=1.002;exitY=0.233;exitDx=0;exitDy=0;exitPerimeter=0;" parent="1" source="EkHCMVU59h59knE90Hll-36" target="EkHCMVU59h59knE90Hll-3" edge="1">
          <mxGeometry width="160" relative="1" as="geometry">
            <mxPoint x="570" y="187" as="sourcePoint" />
            <mxPoint x="640" y="254" as="targetPoint" />
            <Array as="points">
              <mxPoint x="645" y="186" />
            </Array>
          </mxGeometry>
        </mxCell>
        <mxCell id="sbkK2AnOCJ7gOjGIv6pn-29" value="Use" style="endArrow=open;endSize=12;dashed=1;html=1;rounded=0;entryX=-0.005;entryY=0.205;entryDx=0;entryDy=0;entryPerimeter=0;exitX=1.002;exitY=0.292;exitDx=0;exitDy=0;exitPerimeter=0;" parent="1" source="EkHCMVU59h59knE90Hll-5" target="sbkK2AnOCJ7gOjGIv6pn-22" edge="1">
          <mxGeometry width="160" relative="1" as="geometry">
            <mxPoint x="760" y="439.64" as="sourcePoint" />
            <mxPoint x="810" y="439.64" as="targetPoint" />
          </mxGeometry>
        </mxCell>
        <mxCell id="lVDe1UibVYgoFe94r_Ij-1" value="Cart" style="swimlane;fontStyle=1;align=center;verticalAlign=top;childLayout=stackLayout;horizontal=1;startSize=26;horizontalStack=0;resizeParent=1;resizeParentMax=0;resizeLast=0;collapsible=1;marginBottom=0;whiteSpace=wrap;html=1;" parent="1" vertex="1">
          <mxGeometry x="-210" y="770" width="180" height="138" as="geometry" />
        </mxCell>
        <mxCell id="lVDe1UibVYgoFe94r_Ij-5" value="- _items: List&amp;lt;Item&amp;gt;" style="text;strokeColor=none;fillColor=none;align=left;verticalAlign=top;spacingLeft=4;spacingRight=4;overflow=hidden;rotatable=0;points=[[0,0.5],[1,0.5]];portConstraint=eastwest;whiteSpace=wrap;html=1;" parent="lVDe1UibVYgoFe94r_Ij-1" vertex="1">
          <mxGeometry y="26" width="180" height="26" as="geometry" />
        </mxCell>
        <mxCell id="lVDe1UibVYgoFe94r_Ij-2" value="- _amount: int" style="text;strokeColor=none;fillColor=none;align=left;verticalAlign=top;spacingLeft=4;spacingRight=4;overflow=hidden;rotatable=0;points=[[0,0.5],[1,0.5]];portConstraint=eastwest;whiteSpace=wrap;html=1;" parent="lVDe1UibVYgoFe94r_Ij-1" vertex="1">
          <mxGeometry y="52" width="180" height="26" as="geometry" />
        </mxCell>
        <mxCell id="lVDe1UibVYgoFe94r_Ij-3" value="" style="line;strokeWidth=1;fillColor=none;align=left;verticalAlign=middle;spacingTop=-1;spacingLeft=3;spacingRight=3;rotatable=0;labelPosition=right;points=[];portConstraint=eastwest;strokeColor=inherit;" parent="lVDe1UibVYgoFe94r_Ij-1" vertex="1">
          <mxGeometry y="78" width="180" height="8" as="geometry" />
        </mxCell>
        <mxCell id="lVDe1UibVYgoFe94r_Ij-4" value="+ Items {get;set;}: List&amp;lt;Item&amp;gt;" style="text;strokeColor=none;fillColor=none;align=left;verticalAlign=top;spacingLeft=4;spacingRight=4;overflow=hidden;rotatable=0;points=[[0,0.5],[1,0.5]];portConstraint=eastwest;whiteSpace=wrap;html=1;" parent="lVDe1UibVYgoFe94r_Ij-1" vertex="1">
          <mxGeometry y="86" width="180" height="26" as="geometry" />
        </mxCell>
        <mxCell id="lVDe1UibVYgoFe94r_Ij-6" value="+ Amount {get;}: int" style="text;strokeColor=none;fillColor=none;align=left;verticalAlign=top;spacingLeft=4;spacingRight=4;overflow=hidden;rotatable=0;points=[[0,0.5],[1,0.5]];portConstraint=eastwest;whiteSpace=wrap;html=1;" parent="lVDe1UibVYgoFe94r_Ij-1" vertex="1">
          <mxGeometry y="112" width="180" height="26" as="geometry" />
        </mxCell>
        <mxCell id="lVDe1UibVYgoFe94r_Ij-7" value="Order" style="swimlane;fontStyle=1;align=center;verticalAlign=top;childLayout=stackLayout;horizontal=1;startSize=26;horizontalStack=0;resizeParent=1;resizeParentMax=0;resizeLast=0;collapsible=1;marginBottom=0;whiteSpace=wrap;html=1;" parent="1" vertex="1">
          <mxGeometry x="-520" y="252" width="240" height="450" as="geometry" />
        </mxCell>
        <mxCell id="lVDe1UibVYgoFe94r_Ij-11" value="- _id: int" style="text;strokeColor=none;fillColor=none;align=left;verticalAlign=top;spacingLeft=4;spacingRight=4;overflow=hidden;rotatable=0;points=[[0,0.5],[1,0.5]];portConstraint=eastwest;whiteSpace=wrap;html=1;" parent="lVDe1UibVYgoFe94r_Ij-7" vertex="1">
          <mxGeometry y="26" width="240" height="26" as="geometry" />
        </mxCell>
        <mxCell id="lVDe1UibVYgoFe94r_Ij-12" value="-&amp;nbsp;_allOrdersCount: int" style="text;strokeColor=none;fillColor=none;align=left;verticalAlign=top;spacingLeft=4;spacingRight=4;overflow=hidden;rotatable=0;points=[[0,0.5],[1,0.5]];portConstraint=eastwest;whiteSpace=wrap;html=1;fontStyle=4" parent="lVDe1UibVYgoFe94r_Ij-7" vertex="1">
          <mxGeometry y="52" width="240" height="26" as="geometry" />
        </mxCell>
        <mxCell id="lVDe1UibVYgoFe94r_Ij-13" value="- _items:&amp;nbsp;List&amp;lt;Item&amp;gt;" style="text;strokeColor=none;fillColor=none;align=left;verticalAlign=top;spacingLeft=4;spacingRight=4;overflow=hidden;rotatable=0;points=[[0,0.5],[1,0.5]];portConstraint=eastwest;whiteSpace=wrap;html=1;" parent="lVDe1UibVYgoFe94r_Ij-7" vertex="1">
          <mxGeometry y="78" width="240" height="26" as="geometry" />
        </mxCell>
        <mxCell id="lVDe1UibVYgoFe94r_Ij-14" value="-&amp;nbsp;_creationDate: DateTime" style="text;strokeColor=none;fillColor=none;align=left;verticalAlign=top;spacingLeft=4;spacingRight=4;overflow=hidden;rotatable=0;points=[[0,0.5],[1,0.5]];portConstraint=eastwest;whiteSpace=wrap;html=1;" parent="lVDe1UibVYgoFe94r_Ij-7" vertex="1">
          <mxGeometry y="104" width="240" height="26" as="geometry" />
        </mxCell>
        <mxCell id="lVDe1UibVYgoFe94r_Ij-15" value="- _address: Address" style="text;strokeColor=none;fillColor=none;align=left;verticalAlign=top;spacingLeft=4;spacingRight=4;overflow=hidden;rotatable=0;points=[[0,0.5],[1,0.5]];portConstraint=eastwest;whiteSpace=wrap;html=1;" parent="lVDe1UibVYgoFe94r_Ij-7" vertex="1">
          <mxGeometry y="130" width="240" height="26" as="geometry" />
        </mxCell>
        <mxCell id="lVDe1UibVYgoFe94r_Ij-8" value="- _amount: int" style="text;strokeColor=none;fillColor=none;align=left;verticalAlign=top;spacingLeft=4;spacingRight=4;overflow=hidden;rotatable=0;points=[[0,0.5],[1,0.5]];portConstraint=eastwest;whiteSpace=wrap;html=1;" parent="lVDe1UibVYgoFe94r_Ij-7" vertex="1">
          <mxGeometry y="156" width="240" height="26" as="geometry" />
        </mxCell>
        <mxCell id="lVDe1UibVYgoFe94r_Ij-9" value="" style="line;strokeWidth=1;fillColor=none;align=left;verticalAlign=middle;spacingTop=-1;spacingLeft=3;spacingRight=3;rotatable=0;labelPosition=right;points=[];portConstraint=eastwest;strokeColor=inherit;" parent="lVDe1UibVYgoFe94r_Ij-7" vertex="1">
          <mxGeometry y="182" width="240" height="8" as="geometry" />
        </mxCell>
        <mxCell id="lVDe1UibVYgoFe94r_Ij-10" value="+&amp;nbsp;AllOrdersCount {get;private set;}: int" style="text;strokeColor=none;fillColor=none;align=left;verticalAlign=top;spacingLeft=4;spacingRight=4;overflow=hidden;rotatable=0;points=[[0,0.5],[1,0.5]];portConstraint=eastwest;whiteSpace=wrap;html=1;" parent="lVDe1UibVYgoFe94r_Ij-7" vertex="1">
          <mxGeometry y="190" width="240" height="26" as="geometry" />
        </mxCell>
        <mxCell id="lVDe1UibVYgoFe94r_Ij-16" value="+ Id {get;private set;}: int" style="text;strokeColor=none;fillColor=none;align=left;verticalAlign=top;spacingLeft=4;spacingRight=4;overflow=hidden;rotatable=0;points=[[0,0.5],[1,0.5]];portConstraint=eastwest;whiteSpace=wrap;html=1;" parent="lVDe1UibVYgoFe94r_Ij-7" vertex="1">
          <mxGeometry y="216" width="240" height="26" as="geometry" />
        </mxCell>
        <mxCell id="lVDe1UibVYgoFe94r_Ij-17" value="+ Items {get;set;}:&amp;nbsp;List&amp;lt;Item&amp;gt;" style="text;strokeColor=none;fillColor=none;align=left;verticalAlign=top;spacingLeft=4;spacingRight=4;overflow=hidden;rotatable=0;points=[[0,0.5],[1,0.5]];portConstraint=eastwest;whiteSpace=wrap;html=1;" parent="lVDe1UibVYgoFe94r_Ij-7" vertex="1">
          <mxGeometry y="242" width="240" height="26" as="geometry" />
        </mxCell>
        <mxCell id="lVDe1UibVYgoFe94r_Ij-18" value="+ CreationDate {get;private set;}: DateTime" style="text;strokeColor=none;fillColor=none;align=left;verticalAlign=top;spacingLeft=4;spacingRight=4;overflow=hidden;rotatable=0;points=[[0,0.5],[1,0.5]];portConstraint=eastwest;whiteSpace=wrap;html=1;" parent="lVDe1UibVYgoFe94r_Ij-7" vertex="1">
          <mxGeometry y="268" width="240" height="26" as="geometry" />
        </mxCell>
        <mxCell id="lVDe1UibVYgoFe94r_Ij-19" value="+ Address {get;set;}: Address" style="text;strokeColor=none;fillColor=none;align=left;verticalAlign=top;spacingLeft=4;spacingRight=4;overflow=hidden;rotatable=0;points=[[0,0.5],[1,0.5]];portConstraint=eastwest;whiteSpace=wrap;html=1;" parent="lVDe1UibVYgoFe94r_Ij-7" vertex="1">
          <mxGeometry y="294" width="240" height="26" as="geometry" />
        </mxCell>
        <mxCell id="lVDe1UibVYgoFe94r_Ij-20" value="+ Amount {get;}: int" style="text;strokeColor=none;fillColor=none;align=left;verticalAlign=top;spacingLeft=4;spacingRight=4;overflow=hidden;rotatable=0;points=[[0,0.5],[1,0.5]];portConstraint=eastwest;whiteSpace=wrap;html=1;" parent="lVDe1UibVYgoFe94r_Ij-7" vertex="1">
          <mxGeometry y="320" width="240" height="26" as="geometry" />
        </mxCell>
        <mxCell id="lVDe1UibVYgoFe94r_Ij-21" value="+ OrderStatus {get;set;}: OrderStatus" style="text;strokeColor=none;fillColor=none;align=left;verticalAlign=top;spacingLeft=4;spacingRight=4;overflow=hidden;rotatable=0;points=[[0,0.5],[1,0.5]];portConstraint=eastwest;whiteSpace=wrap;html=1;" parent="lVDe1UibVYgoFe94r_Ij-7" vertex="1">
          <mxGeometry y="346" width="240" height="26" as="geometry" />
        </mxCell>
        <mxCell id="MhgVoDi9bUxvAhyQU6as-3" value="+ IsPriority {get;set;}: bool" style="text;strokeColor=none;fillColor=none;align=left;verticalAlign=top;spacingLeft=4;spacingRight=4;overflow=hidden;rotatable=0;points=[[0,0.5],[1,0.5]];portConstraint=eastwest;whiteSpace=wrap;html=1;" vertex="1" parent="lVDe1UibVYgoFe94r_Ij-7">
          <mxGeometry y="372" width="240" height="26" as="geometry" />
        </mxCell>
        <mxCell id="lVDe1UibVYgoFe94r_Ij-22" value="+ Order: void" style="text;strokeColor=none;fillColor=none;align=left;verticalAlign=top;spacingLeft=4;spacingRight=4;overflow=hidden;rotatable=0;points=[[0,0.5],[1,0.5]];portConstraint=eastwest;whiteSpace=wrap;html=1;" parent="lVDe1UibVYgoFe94r_Ij-7" vertex="1">
          <mxGeometry y="398" width="240" height="26" as="geometry" />
        </mxCell>
        <mxCell id="lVDe1UibVYgoFe94r_Ij-23" value="+ Order (Address, Cart, OrderStatus): void" style="text;strokeColor=none;fillColor=none;align=left;verticalAlign=top;spacingLeft=4;spacingRight=4;overflow=hidden;rotatable=0;points=[[0,0.5],[1,0.5]];portConstraint=eastwest;whiteSpace=wrap;html=1;" parent="lVDe1UibVYgoFe94r_Ij-7" vertex="1">
          <mxGeometry y="424" width="240" height="26" as="geometry" />
        </mxCell>
        <mxCell id="lVDe1UibVYgoFe94r_Ij-24" value="«enumeration»&lt;br&gt;OrderStatus" style="swimlane;fontStyle=0;childLayout=stackLayout;horizontal=1;startSize=40;fillColor=none;horizontalStack=0;resizeParent=1;resizeParentMax=0;resizeLast=0;collapsible=1;marginBottom=0;whiteSpace=wrap;html=1;" parent="1" vertex="1">
          <mxGeometry x="-720" y="316" width="140" height="222" as="geometry">
            <mxRectangle x="800" y="350" width="120" height="40" as="alternateBounds" />
          </mxGeometry>
        </mxCell>
        <mxCell id="lVDe1UibVYgoFe94r_Ij-25" value="PCcomponents" style="text;strokeColor=none;fillColor=none;align=left;verticalAlign=top;spacingLeft=4;spacingRight=4;overflow=hidden;rotatable=0;points=[[0,0.5],[1,0.5]];portConstraint=eastwest;whiteSpace=wrap;html=1;" parent="lVDe1UibVYgoFe94r_Ij-24" vertex="1">
          <mxGeometry y="40" width="140" height="26" as="geometry" />
        </mxCell>
        <mxCell id="lVDe1UibVYgoFe94r_Ij-26" value="Phones" style="text;strokeColor=none;fillColor=none;align=left;verticalAlign=top;spacingLeft=4;spacingRight=4;overflow=hidden;rotatable=0;points=[[0,0.5],[1,0.5]];portConstraint=eastwest;whiteSpace=wrap;html=1;" parent="lVDe1UibVYgoFe94r_Ij-24" vertex="1">
          <mxGeometry y="66" width="140" height="26" as="geometry" />
        </mxCell>
        <mxCell id="lVDe1UibVYgoFe94r_Ij-27" value="DomesticAppliances" style="text;strokeColor=none;fillColor=none;align=left;verticalAlign=top;spacingLeft=4;spacingRight=4;overflow=hidden;rotatable=0;points=[[0,0.5],[1,0.5]];portConstraint=eastwest;whiteSpace=wrap;html=1;" parent="lVDe1UibVYgoFe94r_Ij-24" vertex="1">
          <mxGeometry y="92" width="140" height="26" as="geometry" />
        </mxCell>
        <mxCell id="lVDe1UibVYgoFe94r_Ij-28" value="Building" style="text;strokeColor=none;fillColor=none;align=left;verticalAlign=top;spacingLeft=4;spacingRight=4;overflow=hidden;rotatable=0;points=[[0,0.5],[1,0.5]];portConstraint=eastwest;whiteSpace=wrap;html=1;" parent="lVDe1UibVYgoFe94r_Ij-24" vertex="1">
          <mxGeometry y="118" width="140" height="26" as="geometry" />
        </mxCell>
        <mxCell id="lVDe1UibVYgoFe94r_Ij-29" value="Furniture" style="text;strokeColor=none;fillColor=none;align=left;verticalAlign=top;spacingLeft=4;spacingRight=4;overflow=hidden;rotatable=0;points=[[0,0.5],[1,0.5]];portConstraint=eastwest;whiteSpace=wrap;html=1;" parent="lVDe1UibVYgoFe94r_Ij-24" vertex="1">
          <mxGeometry y="144" width="140" height="26" as="geometry" />
        </mxCell>
        <mxCell id="lVDe1UibVYgoFe94r_Ij-30" value="Entertainments" style="text;strokeColor=none;fillColor=none;align=left;verticalAlign=top;spacingLeft=4;spacingRight=4;overflow=hidden;rotatable=0;points=[[0,0.5],[1,0.5]];portConstraint=eastwest;whiteSpace=wrap;html=1;" parent="lVDe1UibVYgoFe94r_Ij-24" vertex="1">
          <mxGeometry y="170" width="140" height="26" as="geometry" />
        </mxCell>
        <mxCell id="lVDe1UibVYgoFe94r_Ij-31" value="CarGoods" style="text;strokeColor=none;fillColor=none;align=left;verticalAlign=top;spacingLeft=4;spacingRight=4;overflow=hidden;rotatable=0;points=[[0,0.5],[1,0.5]];portConstraint=eastwest;whiteSpace=wrap;html=1;" parent="lVDe1UibVYgoFe94r_Ij-24" vertex="1">
          <mxGeometry y="196" width="140" height="26" as="geometry" />
        </mxCell>
        <mxCell id="lVDe1UibVYgoFe94r_Ij-32" value="Use" style="endArrow=open;endSize=12;dashed=1;html=1;rounded=0;entryX=1.002;entryY=0.058;entryDx=0;entryDy=0;entryPerimeter=0;exitX=0.002;exitY=0.468;exitDx=0;exitDy=0;exitPerimeter=0;" parent="1" source="lVDe1UibVYgoFe94r_Ij-9" target="lVDe1UibVYgoFe94r_Ij-28" edge="1">
          <mxGeometry width="160" relative="1" as="geometry">
            <mxPoint x="-210" y="930" as="sourcePoint" />
            <mxPoint x="-300" y="921" as="targetPoint" />
          </mxGeometry>
        </mxCell>
        <mxCell id="lVDe1UibVYgoFe94r_Ij-33" value="1" style="endArrow=open;html=1;endSize=12;startArrow=diamondThin;startSize=14;startFill=0;edgeStyle=orthogonalEdgeStyle;align=left;verticalAlign=top;rounded=0;labelPosition=right;verticalLabelPosition=bottom;horizontal=1;entryX=0.502;entryY=1.004;entryDx=0;entryDy=0;entryPerimeter=0;exitX=0.5;exitY=1.003;exitDx=0;exitDy=0;exitPerimeter=0;" parent="1" source="lVDe1UibVYgoFe94r_Ij-6" target="sbkK2AnOCJ7gOjGIv6pn-35" edge="1">
          <mxGeometry x="-1" y="3" relative="1" as="geometry">
            <mxPoint x="-120" y="940" as="sourcePoint" />
            <mxPoint x="620" y="670" as="targetPoint" />
            <Array as="points">
              <mxPoint x="-120" y="940" />
              <mxPoint x="645" y="940" />
            </Array>
          </mxGeometry>
        </mxCell>
        <mxCell id="lVDe1UibVYgoFe94r_Ij-34" value="&lt;div style=&quot;&quot;&gt;&lt;br&gt;&lt;/div&gt;" style="endArrow=open;html=1;endSize=12;startArrow=diamondThin;startSize=14;startFill=1;edgeStyle=orthogonalEdgeStyle;align=left;verticalAlign=top;rounded=0;labelPosition=right;verticalLabelPosition=bottom;entryX=0.5;entryY=0;entryDx=0;entryDy=0;exitX=0;exitY=1;exitDx=0;exitDy=0;" parent="1" source="EkHCMVU59h59knE90Hll-18" target="lVDe1UibVYgoFe94r_Ij-1" edge="1">
          <mxGeometry x="-1" y="3" relative="1" as="geometry">
            <mxPoint x="50" y="700" as="sourcePoint" />
            <mxPoint x="20" y="670" as="targetPoint" />
          </mxGeometry>
        </mxCell>
        <mxCell id="lVDe1UibVYgoFe94r_Ij-35" value="&lt;font style=&quot;font-size: 14px;&quot;&gt;1&lt;/font&gt;" style="text;html=1;align=center;verticalAlign=middle;resizable=0;points=[];autosize=1;strokeColor=none;fillColor=none;" parent="1" vertex="1">
          <mxGeometry x="-120" y="740" width="30" height="30" as="geometry" />
        </mxCell>
        <mxCell id="lVDe1UibVYgoFe94r_Ij-36" value="&lt;font style=&quot;font-size: 20px;&quot;&gt;*&lt;/font&gt;" style="text;html=1;align=center;verticalAlign=middle;resizable=0;points=[];autosize=1;strokeColor=none;fillColor=none;" parent="1" vertex="1">
          <mxGeometry x="40" y="687" width="30" height="40" as="geometry" />
        </mxCell>
        <mxCell id="-F8Q1V_g5fa-UAAVx8Ue-4" value="1" style="endArrow=open;html=1;endSize=12;startArrow=diamondThin;startSize=14;startFill=1;edgeStyle=orthogonalEdgeStyle;align=right;verticalAlign=bottom;rounded=0;entryX=0.5;entryY=0;entryDx=0;entryDy=0;exitX=0;exitY=0;exitDx=0;exitDy=0;" parent="1" source="EkHCMVU59h59knE90Hll-18" target="lVDe1UibVYgoFe94r_Ij-7" edge="1">
          <mxGeometry x="-1" y="3" relative="1" as="geometry">
            <mxPoint x="60" y="230" as="sourcePoint" />
            <mxPoint x="-400" y="230" as="targetPoint" />
            <Array as="points">
              <mxPoint x="40" y="200" />
              <mxPoint x="-400" y="200" />
            </Array>
          </mxGeometry>
        </mxCell>
        <mxCell id="-F8Q1V_g5fa-UAAVx8Ue-5" value="&lt;font style=&quot;font-size: 14px;&quot;&gt;1&lt;/font&gt;" style="text;html=1;align=center;verticalAlign=middle;resizable=0;points=[];autosize=1;strokeColor=none;fillColor=none;" parent="1" vertex="1">
          <mxGeometry x="-400" y="222" width="30" height="30" as="geometry" />
        </mxCell>
        <mxCell id="nUYODnXPmWr-A2Utp6na-1" value="PriorityOrder" style="swimlane;fontStyle=1;align=center;verticalAlign=top;childLayout=stackLayout;horizontal=1;startSize=26;horizontalStack=0;resizeParent=1;resizeParentMax=0;resizeLast=0;collapsible=1;marginBottom=0;whiteSpace=wrap;html=1;" parent="1" vertex="1">
          <mxGeometry x="-530" y="770" width="260" height="190" as="geometry" />
        </mxCell>
        <mxCell id="nUYODnXPmWr-A2Utp6na-2" value="- _requestedDeliveryTime: string" style="text;strokeColor=none;fillColor=none;align=left;verticalAlign=top;spacingLeft=4;spacingRight=4;overflow=hidden;rotatable=0;points=[[0,0.5],[1,0.5]];portConstraint=eastwest;whiteSpace=wrap;html=1;" parent="nUYODnXPmWr-A2Utp6na-1" vertex="1">
          <mxGeometry y="26" width="260" height="26" as="geometry" />
        </mxCell>
        <mxCell id="nUYODnXPmWr-A2Utp6na-5" value="-&amp;nbsp;_requestedDeliveryDate: DateTime" style="text;strokeColor=none;fillColor=none;align=left;verticalAlign=top;spacingLeft=4;spacingRight=4;overflow=hidden;rotatable=0;points=[[0,0.5],[1,0.5]];portConstraint=eastwest;whiteSpace=wrap;html=1;" parent="nUYODnXPmWr-A2Utp6na-1" vertex="1">
          <mxGeometry y="52" width="260" height="26" as="geometry" />
        </mxCell>
        <mxCell id="nUYODnXPmWr-A2Utp6na-3" value="" style="line;strokeWidth=1;fillColor=none;align=left;verticalAlign=middle;spacingTop=-1;spacingLeft=3;spacingRight=3;rotatable=0;labelPosition=right;points=[];portConstraint=eastwest;strokeColor=inherit;" parent="nUYODnXPmWr-A2Utp6na-1" vertex="1">
          <mxGeometry y="78" width="260" height="8" as="geometry" />
        </mxCell>
        <mxCell id="nUYODnXPmWr-A2Utp6na-4" value="+&amp;nbsp;RequestedDeliveryTime {get;set;}: string" style="text;strokeColor=none;fillColor=none;align=left;verticalAlign=top;spacingLeft=4;spacingRight=4;overflow=hidden;rotatable=0;points=[[0,0.5],[1,0.5]];portConstraint=eastwest;whiteSpace=wrap;html=1;" parent="nUYODnXPmWr-A2Utp6na-1" vertex="1">
          <mxGeometry y="86" width="260" height="26" as="geometry" />
        </mxCell>
        <mxCell id="nUYODnXPmWr-A2Utp6na-6" value="+&amp;nbsp;RequestedDeliveryDate {get;set:}: DateTime" style="text;strokeColor=none;fillColor=none;align=left;verticalAlign=top;spacingLeft=4;spacingRight=4;overflow=hidden;rotatable=0;points=[[0,0.5],[1,0.5]];portConstraint=eastwest;whiteSpace=wrap;html=1;" parent="nUYODnXPmWr-A2Utp6na-1" vertex="1">
          <mxGeometry y="112" width="260" height="26" as="geometry" />
        </mxCell>
        <mxCell id="nUYODnXPmWr-A2Utp6na-7" value="+&amp;nbsp;PriorityOrder (string, DateTime): void" style="text;strokeColor=none;fillColor=none;align=left;verticalAlign=top;spacingLeft=4;spacingRight=4;overflow=hidden;rotatable=0;points=[[0,0.5],[1,0.5]];portConstraint=eastwest;whiteSpace=wrap;html=1;" parent="nUYODnXPmWr-A2Utp6na-1" vertex="1">
          <mxGeometry y="138" width="260" height="26" as="geometry" />
        </mxCell>
        <mxCell id="nUYODnXPmWr-A2Utp6na-8" value="+&amp;nbsp;PriorityOrder: void" style="text;strokeColor=none;fillColor=none;align=left;verticalAlign=top;spacingLeft=4;spacingRight=4;overflow=hidden;rotatable=0;points=[[0,0.5],[1,0.5]];portConstraint=eastwest;whiteSpace=wrap;html=1;" parent="nUYODnXPmWr-A2Utp6na-1" vertex="1">
          <mxGeometry y="164" width="260" height="26" as="geometry" />
        </mxCell>
        <mxCell id="AYyKFVhbFvLpL1oln4wP-1" value="" style="endArrow=block;endSize=16;endFill=0;html=1;rounded=0;exitX=0.5;exitY=1;exitDx=0;exitDy=0;entryX=0.5;entryY=0;entryDx=0;entryDy=0;" parent="1" source="lVDe1UibVYgoFe94r_Ij-7" target="nUYODnXPmWr-A2Utp6na-1" edge="1">
          <mxGeometry width="160" relative="1" as="geometry">
            <mxPoint x="-400" y="690" as="sourcePoint" />
            <mxPoint x="-600" y="700" as="targetPoint" />
          </mxGeometry>
        </mxCell>
      </root>
    </mxGraphModel>
  </diagram>
</mxfile>
